{
  "accessors": [
    {
      "bufferView": 2,
      "componentType": 5126,
      "count": 1161,
      "max": [
        539.2733154296875,
        539.2733154296875,
        4.0
      ],
      "min": [
        -539.273681640625,
        -539.273681640625,
        0.0
      ],
      "type": "VEC3"
    },
    {
      "bufferView": 2,
      "byteOffset": 13932,
      "componentType": 5126,
      "count": 1161,
      "max": [
        1.0,
        1.0,
        1.0
      ],
      "min": [
        -1.0,
        -1.0,
        -1.0
      ],
      "type": "VEC3"
    },
    {
      "bufferView": 3,
      "componentType": 5126,
      "count": 1161,
      "max": [
        1.0,
        1.0,
        1.0,
        1.0
      ],
      "min": [
        -1.0,
        -1.0,
        -1.0,
        -1.0
      ],
      "type": "VEC4"
    },
    {
      "bufferView": 1,
      "componentType": 5126,
      "count": 1161,
      "max": [
        2.1734869480133057,
        1.968245029449463
      ],
      "min": [
        -0.9918025135993958,
        -1.1668219566345215
      ],
      "type": "VEC2"
    },
    {
      "bufferView": 0,
      "componentType": 5125,
      "count": 1800,
      "type": "SCALAR"
    },
    {
      "bufferView": 2,
      "byteOffset": 27864,
      "componentType": 5126,
      "count": 660,
      "max": [
        540.273681640625,
        540.273681640625,
        337.4219970703125
      ],
      "min": [
        -540.273681640625,
        -540.273681640625,
        0.0
      ],
      "type": "VEC3"
    },
    {
      "bufferView": 2,
      "byteOffset": 35784,
      "componentType": 5126,
      "count": 660,
      "max": [
        0.9955458045005798,
        1.0,
        1.0
      ],
      "min": [
        -0.9955458045005798,
        -1.0,
        -1.0
      ],
      "type": "VEC3"
    },
    {
      "bufferView": 1,
      "byteOffset": 9288,
      "componentType": 5126,
      "count": 660,
      "max": [
        0.4370107054710388,
        1.6042189598083496
      ],
      "min": [
        -0.27915990352630615,
        -0.04856808856129646
      ],
      "type": "VEC2"
    },
    {
      "bufferView": 0,
      "byteOffset": 7200,
      "componentType": 5125,
      "count": 972,
      "type": "SCALAR"
    },
    {
      "bufferView": 2,
      "byteOffset": 43704,
      "componentType": 5126,
      "count": 1156,
      "max": [
        540.273681640625,
        540.273681640625,
        337.4219970703125
      ],
      "min": [
        -540.273681640625,
        -540.273681640625,
        0.0
      ],
      "type": "VEC3"
    },
    {
      "bufferView": 2,
      "byteOffset": 57576,
      "componentType": 5126,
      "count": 1156,
      "max": [
        1.0,
        1.0,
        1.0
      ],
      "min": [
        -1.0,
        -1.0,
        -1.0
      ],
      "type": "VEC3"
    },
    {
      "bufferView": 1,
      "byteOffset": 14568,
      "componentType": 5126,
      "count": 1156,
      "max": [
        2.7609689235687256,
        1.5345640182495117
      ],
      "min": [
        -0.015658359974622726,
        -0.015658359974622726
      ],
      "type": "VEC2"
    },
    {
      "bufferView": 0,
      "byteOffset": 11088,
      "componentType": 5125,
      "count": 2292,
      "type": "SCALAR"
    },
    {
      "bufferView": 2,
      "byteOffset": 71448,
      "componentType": 5126,
      "count": 1344,
      "max": [
        540.273681640625,
        540.273681640625,
        335.48919677734375
      ],
      "min": [
        -540.273681640625,
        -540.273681640625,
        0.0
      ],
      "type": "VEC3"
    },
    {
      "bufferView": 2,
      "byteOffset": 87576,
      "componentType": 5126,
      "count": 1344,
      "max": [
        1.0,
        1.0,
        1.0
      ],
      "min": [
        -1.0,
        -1.0,
        -1.0
      ],
      "type": "VEC3"
    },
    {
      "bufferView": 1,
      "byteOffset": 23816,
      "componentType": 5126,
      "count": 1344,
      "max": [
        2.8819661140441895,
        1.65556001663208
      ],
      "min": [
        -1.3408030271530151,
        -2.5039050579071045
      ],
      "type": "VEC2"
    },
    {
      "bufferView": 0,
      "byteOffset": 20256,
      "componentType": 5125,
      "count": 2544,
      "type": "SCALAR"
    },
    {
      "bufferView": 2,
      "byteOffset": 103704,
      "componentType": 5126,
      "count": 3432,
      "max": [
        540.273681640625,
        540.273681640625,
        337.4219970703125
      ],
      "min": [
        -540.273681640625,
        -540.273681640625,
        0.0
      ],
      "type": "VEC3"
    },
    {
      "bufferView": 2,
      "byteOffset": 144888,
      "componentType": 5126,
      "count": 3432,
      "max": [
        1.0,
        1.0,
        1.0
      ],
      "min": [
        -1.0,
        -1.0,
        -1.0
      ],
      "type": "VEC3"
    },
    {
      "bufferView": 1,
      "byteOffset": 34568,
      "componentType": 5126,
      "count": 3432,
      "max": [
        1.4440799951553345,
        1.46669602394104
      ],
      "min": [
        -1.9209760427474976,
        -0.273309588432312
      ],
      "type": "VEC2"
    },
    {
      "bufferView": 0,
      "byteOffset": 30432,
      "componentType": 5125,
      "count": 6516,
      "type": "SCALAR"
    },
    {
      "bufferView": 2,
      "byteOffset": 186072,
      "componentType": 5126,
      "count": 192,
      "max": [
        522.363525390625,
        522.363525390625,
        179.4835968017578
      ],
      "min": [
        -522.363525390625,
        -522.363525390625,
        20.516361236572266
      ],
      "type": "VEC3"
    },
    {
      "bufferView": 2,
      "byteOffset": 188376,
      "componentType": 5126,
      "count": 192,
      "max": [
        0.7071068286895752,
        0.7071068286895752,
        0.0
      ],
      "min": [
        -0.7071068286895752,
        -0.7071068286895752,
        0.0
      ],
      "type": "VEC3"
    },
    {
      "bufferView": 0,
      "byteOffset": 56496,
      "componentType": 5125,
      "count": 288,
      "type": "SCALAR"
    },
    {
      "bufferView": 2,
      "byteOffset": 190680,
      "componentType": 5126,
      "count": 192,
      "max": [
        522.363525390625,
        522.363525390625,
        179.4835968017578
      ],
      "min": [
        -522.363525390625,
        -522.363525390625,
        20.516361236572266
      ],
      "type": "VEC3"
    },
    {
      "bufferView": 2,
      "byteOffset": 192984,
      "componentType": 5126,
      "count": 192,
      "max": [
        0.7071068286895752,
        0.7071068286895752,
        0.0
      ],
      "min": [
        -0.7071068286895752,
        -0.7071068286895752,
        0.0
      ],
      "type": "VEC3"
    },
    {
      "bufferView": 0,
      "byteOffset": 57648,
      "componentType": 5125,
      "count": 288,
      "type": "SCALAR"
    },
    {
      "bufferView": 2,
      "byteOffset": 195288,
      "componentType": 5126,
      "count": 64,
      "max": [
        480.059326171875,
        480.0592956542969,
        113.74955749511719
      ],
      "min": [
        -480.059326171875,
        -480.0592956542969,
        23.0
      ],
      "type": "VEC3"
    },
    {
      "bufferView": 2,
      "byteOffset": 196056,
      "componentType": 5126,
      "count": 64,
      "max": [
        0.7071068286895752,
        0.7071068286895752,
        0.0
      ],
      "min": [
        -0.7071068286895752,
        -0.7071068286895752,
        0.0
      ],
      "type": "VEC3"
    },
    {
      "bufferView": 1,
      "byteOffset": 62024,
      "componentType": 5126,
      "count": 64,
      "max": [
        1.0,
        0.9893929958343506
      ],
      "min": [
        0.0,
        0.0
      ],
      "type": "VEC2"
    },
    {
      "bufferView": 0,
      "byteOffset": 58800,
      "componentType": 5125,
      "count": 96,
      "type": "SCALAR"
    },
    {
      "bufferView": 2,
      "byteOffset": 196824,
      "componentType": 5126,
      "count": 80,
      "max": [
        538.961181640625,
        538.961181640625,
        193.5
      ],
      "min": [
        -538.961181640625,
        -538.961181640625,
        9.125
      ],
      "type": "VEC3"
    },
    {
      "bufferView": 2,
      "byteOffset": 197784,
      "componentType": 5126,
      "count": 80,
      "max": [
        1.0,
        1.0,
        2.4664258994406196e-15
      ],
      "min": [
        -1.0,
        -1.0,
        -2.4664258994406196e-15
      ],
      "type": "VEC3"
    },
    {
      "bufferView": 1,
      "byteOffset": 62536,
      "componentType": 5126,
      "count": 80,
      "max": [
        1.0,
        3.6078710556030273
      ],
      "min": [
        2.220446049250313e-16,
        0.0
      ],
      "type": "VEC2"
    },
    {
      "bufferView": 0,
      "byteOffset": 59184,
      "componentType": 5125,
      "count": 144,
      "type": "SCALAR"
    }
  ],
  "asset": {
    "extras": {
      "author": "jimbogies (https://sketchfab.com/jimbogies)",
      "license": "CC-BY-4.0 (http://creativecommons.org/licenses/by/4.0/)",
      "source": "https://sketchfab.com/3d-models/sci-fi-room-bda3a098d75b48d5b98454b84ffdd747",
      "title": "Sci Fi Room"
    },
    "generator": "Sketchfab-13.74.0",
    "version": "2.0"
  },
  "bufferViews": [
    {
      "buffer": 0,
      "byteLength": 59760,
      "name": "floatBufferViews",
      "target": 34963
    },
    {
      "buffer": 0,
      "byteLength": 63176,
      "byteOffset": 59760,
      "byteStride": 8,
      "name": "floatBufferViews",
      "target": 34962
    },
    {
      "buffer": 0,
      "byteLength": 198744,
      "byteOffset": 122936,
      "byteStride": 12,
      "name": "floatBufferViews",
      "target": 34962
    },
    {
      "buffer": 0,
      "byteLength": 18576,
      "byteOffset": 321680,
      "byteStride": 16,
      "name": "floatBufferViews",
      "target": 34962
    }
  ],
  "buffers": [
    {
      "byteLength": 340256,
      "uri": "scene.bin"
    }
  ],
  "images": [
    {
      "uri": "textures/Floor_baseColor.jpeg"
    },
    {
      "uri": "textures/Floor_normal.png"
    },
    {
      "uri": "textures/Metal04_baseColor.jpeg"
    },
    {
      "uri": "textures/Metal04_metallicRoughness.png"
    },
    {
      "uri": "textures/Metal03_baseColor.jpeg"
    },
    {
      "uri": "textures/Metal01_baseColor.jpeg"
    },
    {
      "uri": "textures/Metal02_baseColor.jpeg"
    },
    {
      "uri": "textures/Photo01_baseColor.jpeg"
    },
    {
      "uri": "textures/Photo02_baseColor.jpeg"
    }
  ],
  "materials": [
    {
      "name": "Floor",
      "normalTexture": {
        "index": 1
      },
      "pbrMetallicRoughness": {
        "baseColorTexture": {
          "index": 0
        },
        "metallicFactor": 0.0,
        "roughnessFactor": 0.8396216064658483
      }
    },
    {
      "name": "Metal04",
      "pbrMetallicRoughness": {
        "baseColorTexture": {
          "index": 2
        },
        "metallicFactor": 0.236191196,
        "metallicRoughnessTexture": {
          "index": 3
        },
        "roughnessFactor": 0.9310504565
      }
    },
    {
      "name": "Metal03",
      "pbrMetallicRoughness": {
        "baseColorTexture": {
          "index": 4
        },
        "metallicFactor": 0.1508576026,
        "metallicRoughnessTexture": {
          "index": 3
        }
      }
    },
    {
      "name": "Metal01",
      "pbrMetallicRoughness": {
        "baseColorTexture": {
          "index": 5
        },
        "metallicFactor": 0.5470492862,
        "metallicRoughnessTexture": {
          "index": 3
        },
        "roughnessFactor": 0.7238117297
      }
    },
    {
      "name": "Metal02",
      "pbrMetallicRoughness": {
        "baseColorTexture": {
          "index": 6
        },
        "metallicFactor": 0.3398105594,
        "metallicRoughnessTexture": {
          "index": 3
        }
      }
    },
    {
      "emissiveFactor": [
        0.4850274385384793,
        0.8818328719401808,
        0.36973570061318306
      ],
      "name": "Light01",
      "pbrMetallicRoughness": {
        "baseColorFactor": [
          0.3874573561523726,
          0.40395232919355684,
          0.18484964065039006,
          1.0
        ],
        "metallicFactor": 0.0,
        "roughnessFactor": 0.2666674794
      }
    },
    {
      "name": "material",
      "pbrMetallicRoughness": {
        "baseColorFactor": [
          0.643137,
          0.698039,
          0.733333,
          1.0
        ],
        "metallicFactor": 0.0,
        "roughnessFactor": 0.6
      }
    },
    {
      "emissiveFactor": [
        0.5333349587351123,
        0.5333349587351123,
        0.5333349587351123
      ],
      "emissiveTexture": {
        "index": 7
      },
      "name": "Photo01",
      "pbrMetallicRoughness": {
        "baseColorTexture": {
          "index": 7
        },
        "metallicFactor": 0.20571491265497188,
        "roughnessFactor": 0.6750496763418707
      }
    },
    {
      "emissiveFactor": [
        0.10666699174702246,
        0.10666699174702246,
        0.10666699174702246
      ],
      "emissiveTexture": {
        "index": 8
      },
      "name": "Photo02",
      "pbrMetallicRoughness": {
        "baseColorTexture": {
          "index": 8
        },
        "metallicFactor": 0.7360022430544549,
        "roughnessFactor": 0.5714303129304774
      }
    }
  ],
  "meshes": [
    {
      "name": "Material2",
      "primitives": [
        {
          "attributes": {
            "NORMAL": 1,
            "POSITION": 0,
            "TANGENT": 2,
            "TEXCOORD_0": 3
          },
          "indices": 4,
          "material": 0,
          "mode": 4
        }
      ]
    },
    {
      "name": "Material2",
      "primitives": [
        {
          "attributes": {
            "NORMAL": 6,
            "POSITION": 5,
            "TEXCOORD_0": 7
          },
          "indices": 8,
          "material": 1,
          "mode": 4
        }
      ]
    },
    {
      "name": "Material2",
      "primitives": [
        {
          "attributes": {
            "NORMAL": 10,
            "POSITION": 9,
            "TEXCOORD_0": 11
          },
          "indices": 12,
          "material": 2,
          "mode": 4
        }
      ]
    },
    {
      "name": "Material2",
      "primitives": [
        {
          "attributes": {
            "NORMAL": 14,
            "POSITION": 13,
            "TEXCOORD_0": 15
          },
          "indices": 16,
          "material": 3,
          "mode": 4
        }
      ]
    },
    {
      "name": "Material2",
      "primitives": [
        {
          "attributes": {
            "NORMAL": 18,
            "POSITION": 17,
            "TEXCOORD_0": 19
          },
          "indices": 20,
          "material": 4,
          "mode": 4
        }
      ]
    },
    {
      "name": "Material2",
      "primitives": [
        {
          "attributes": {
            "NORMAL": 22,
            "POSITION": 21
          },
          "indices": 23,
          "material": 5,
          "mode": 4
        }
      ]
    },
    {
      "name": "Material3",
      "primitives": [
        {
          "attributes": {
            "NORMAL": 25,
            "POSITION": 24
          },
          "indices": 26,
          "material": 6,
          "mode": 4
        }
      ]
    },
    {
      "name": "Material2",
      "primitives": [
        {
          "attributes": {
            "NORMAL": 28,
            "POSITION": 27,
            "TEXCOORD_0": 29
          },
          "indices": 30,
          "material": 7,
          "mode": 4
        }
      ]
    },
    {
      "name": "Material2",
      "primitives": [
        {
          "attributes": {
            "NORMAL": 32,
            "POSITION": 31,
            "TEXCOORD_0": 33
          },
          "indices": 34,
          "material": 8,
          "mode": 4
        }
      ]
    }
  ],
  "nodes": [
    {
      "children": [
        1
      ],
      "matrix": [
        1.0,
        0.0,
        0.0,
        0.0,
        0.0,
        2.220446049250313e-16,
        -1.0,
        0.0,
        0.0,
        1.0,
        2.220446049250313e-16,
        0.0,
        0.0,
        0.0,
        0.0,
        1.0
      ],
      "name": "Sketchfab_model"
    },
    {
      "children": [
        2,
        3,
        4,
        5,
        6,
        7,
        8,
        9,
        10,
        11
      ],
      "name": "Collada visual scene group"
    },
    {
      "mesh": 0,
      "name": "Material2"
    },
    {
      "mesh": 1,
      "name": "Material2"
    },
    {
      "mesh": 2,
      "name": "Material2"
    },
    {
      "mesh": 3,
      "name": "Material2"
    },
    {
      "mesh": 4,
      "name": "Material2"
    },
    {
      "mesh": 5,
      "name": "Material2"
    },
    {
      "mesh": 6,
      "name": "Material3"
    },
    {
      "mesh": 7,
      "name": "Material2"
    },
    {
      "mesh": 8,
      "name": "Material2"
    },
    {
      "children": [
        12
      ],
      "name": "SketchUp"
    },
    {
      "children": [
        13
      ],
      "matrix": [
        -0.3865965,
        -0.922249,
        1.387779e-17,
        0.0,
        0.1076482,
        -0.04512494,
        0.9931644,
        0.0,
        -0.9159449,
        0.3839539,
        0.1167236,
        0.0,
        -184.5708,
        160.331,
        114.3784,
        1.0
      ],
      "name": "skp_camera_Last_Saved_SketchUp_View"
    },
    {
      "name": "ID1"
    }
  ],
  "samplers": [
    {
      "magFilter": 9729,
      "minFilter": 9987,
      "wrapS": 10497,
      "wrapT": 10497
    }
  ],
  "scene": 0,
  "scenes": [
    {
      "name": "Sketchfab_Scene",
      "nodes": [
        0
      ]
    }
  ],
  "textures": [
    {
      "sampler": 0,
      "source": 0
    },
    {
      "sampler": 0,
      "source": 1
    },
    {
      "sampler": 0,
      "source": 2
    },
    {
      "sampler": 0,
      "source": 3
    },
    {
      "sampler": 0,
      "source": 4
    },
    {
      "sampler": 0,
      "source": 5
    },
    {
      "sampler": 0,
      "source": 6
    },
    {
      "sampler": 0,
      "source": 7
    },
    {
      "sampler": 0,
      "source": 8
    }
  ]
}
